<svg width="102" height="276" viewBox="0 0 102 276" fill="none" xmlns="http://www.w3.org/2000/svg">
<path d="M73.7069 138.674H28.1689L29.66 115.583H71.7199L73.7069 138.674Z" fill="#E50303"/>
<path d="M28.169 138.398L26.814 191.726C26.652 196.544 30.515 200.539 35.336 200.539C39.701 200.539 43.361 197.243 43.816 192.902L49.177 139.851C49.83 133.632 44.952 128.216 38.699 128.216C33.018 128.216 28.36 132.72 28.169 138.398Z" fill="#E50303"/>
<path d="M26.231 262.129L27.299 244.563L35.524 244.601L34.473 262.136L26.231 262.129Z" fill="#E50303"/>
<path d="M25.6019 262.126L15.3289 267.72L9.5469 268.849C6.8899 269.368 4.8919 271.577 4.6419 274.273L4.5249 275.534L35.6899 275.675L35.7509 262.172L25.6019 262.126Z" fill="#E50303"/>
<path d="M21.28 264.813C21.28 264.813 23.223 258.672 20.952 257.65C17.702 256.188 18.265 261.413 21.28 264.813Z" stroke="#E50303" stroke-width="0.4606" stroke-miterlimit="10" stroke-linecap="round" stroke-linejoin="round"/>
<path d="M21.2119 264.771C21.2119 264.771 26.1489 260.634 27.9589 262.345C30.5489 264.792 25.5049 266.263 21.2119 264.771Z" stroke="#E50303" stroke-width="0.4606" stroke-miterlimit="10" stroke-linecap="round" stroke-linejoin="round"/>
<path d="M35.815 275.885L4.39795 275.743L4.40995 272.969L35.828 273.111L35.815 275.885Z" fill="#E50303"/>
<path d="M43.7999 193.199L37.0189 254.976H24.9989L26.8439 192.001C26.9799 187.239 30.9999 183.517 35.7589 183.747C40.6649 183.984 44.3509 188.317 43.7999 193.199Z" fill="#E50303"/>
<path d="M73.6299 138.398L74.9849 191.726C75.1469 196.544 71.2839 200.539 66.4629 200.539C62.0979 200.539 58.4379 197.243 57.9829 192.902L52.6219 139.851C51.9689 133.632 56.8469 128.216 63.0999 128.216C68.7819 128.216 73.4399 132.72 73.6299 138.398Z" fill="#E50303"/>
<path d="M75.0149 262.129L73.9469 244.563L65.7219 244.601L66.7729 262.136L75.0149 262.129Z" fill="#E50303"/>
<path d="M75.644 262.126L85.917 267.72L91.699 268.849C94.356 269.368 96.354 271.577 96.604 274.273L96.721 275.534L65.556 275.675L65.495 262.172L75.644 262.126Z" fill="#E50303"/>
<path d="M79.9659 264.813C79.9659 264.813 78.0229 258.672 80.2939 257.65C83.5439 256.188 82.9809 261.413 79.9659 264.813Z" stroke="#E50303" stroke-width="0.4606" stroke-miterlimit="10" stroke-linecap="round" stroke-linejoin="round"/>
<path d="M80.0339 264.771C80.0339 264.771 75.0969 260.634 73.2869 262.345C70.6969 264.792 75.7419 266.263 80.0339 264.771Z" stroke="#E50303" stroke-width="0.4606" stroke-miterlimit="10" stroke-linecap="round" stroke-linejoin="round"/>
<path d="M65.431 275.885L96.848 275.743L96.836 272.969L65.418 273.111L65.431 275.885Z" fill="#E50303"/>
<path d="M58 193.199L64.781 254.976H76.801L74.957 192.001C74.821 187.239 70.801 183.517 66.042 183.747C61.135 183.984 57.448 188.317 58 193.199Z" fill="#E50303"/>
<path d="M20.866 61.1596C18.701 71.9856 12.928 96.1766 10 108.327C9.02105 112.389 11.413 116.499 15.428 117.657C19.687 118.886 24.115 116.327 25.176 112.023L36.888 64.5206C37.898 59.9156 34.8191 55.4126 30.1621 54.6806C25.8261 54.0006 21.726 56.8566 20.866 61.1596Z" fill="#007DDC"/>
<path d="M5.71702 158.318C3.74002 157.911 2.46802 155.979 2.87502 154.002L4.76502 145.094C5.17202 143.117 7.10402 141.845 9.08102 142.252C11.058 142.659 12.33 144.591 11.923 146.568L10.033 155.476C9.62602 157.452 7.69402 158.724 5.71702 158.318Z" fill="#F3A396"/>
<path d="M11.767 157.594C11.02 155.751 10.053 155.144 10.053 155.144C10.441 153.445 9.32303 151.769 7.60603 151.475L6.39004 151.266C4.80104 150.993 3.27704 152.009 2.91604 153.58L2.89504 153.67C2.89504 153.67 0.663035 157.728 0.161035 163.279C-0.487965 170.45 2.55004 174.094 4.78904 174.126C6.90504 174.157 8.10004 165.748 8.58204 162.633L9.89804 165.8C10.065 166.202 10.474 166.449 10.907 166.41C11.373 166.368 11.747 166.007 11.805 165.542L12.268 161.861C12.45 160.419 12.313 158.94 11.767 157.594Z" fill="#E50303"/>
<path d="M9.985 108.279L0 149.077L15.165 153.219L25.328 111.498C26.295 107.088 23.347 102.776 18.887 102.075C14.735 101.424 10.809 104.158 9.985 108.279Z" fill="#E50303"/>
<path d="M80.65 61.1596C82.815 71.9856 88.587 96.1766 91.516 108.327C92.495 112.389 90.103 116.499 86.088 117.657C81.829 118.886 77.401 116.327 76.34 112.023L64.628 64.5206C63.618 59.9156 66.697 55.4126 71.354 54.6806C75.689 54.0006 79.789 56.8566 80.65 61.1596Z" fill="#007DDC"/>
<path d="M95.7979 158.318C97.7749 157.911 99.0469 155.979 98.6399 154.002L96.7499 145.094C96.3429 143.117 94.4109 141.845 92.4339 142.252C90.4569 142.659 89.1849 144.591 89.5919 146.568L91.4819 155.476C91.8889 157.452 93.8209 158.724 95.7979 158.318Z" fill="#F3A396"/>
<path d="M89.748 157.594C90.495 155.751 91.462 155.144 91.462 155.144C91.074 153.445 92.192 151.769 93.91 151.475L95.126 151.266C96.715 150.993 98.239 152.009 98.6 153.58L98.621 153.67C98.621 153.67 100.853 157.728 101.355 163.279C102.004 170.45 98.966 174.094 96.727 174.126C94.611 174.157 93.416 165.748 92.934 162.633L91.618 165.8C91.451 166.202 91.042 166.449 90.609 166.41C90.143 166.368 89.769 166.007 89.711 165.542L89.248 161.861C89.066 160.419 89.203 158.94 89.748 157.594Z" fill="#E50303"/>
<path d="M91.53 108.279L101.515 149.077L86.35 153.219L76.187 111.498C75.22 107.088 78.168 102.776 82.628 102.075C86.78 101.424 90.706 104.158 91.53 108.279Z" fill="#E50303"/>
<path d="M58.557 47.8945L50.664 48.0065L42.98 47.8945L26.519 54.9295L29.66 115.584H50.664H71.877L75.018 54.9295L58.557 47.8945Z" fill="#007DDC"/>
<path d="M51.076 58.6396V115.724" stroke="#005F99" stroke-width="0.7186" stroke-miterlimit="10"/>
<path d="M49.548 64.8836C49.548 65.3786 49.147 65.7806 48.651 65.7806C48.155 65.7806 47.754 65.3796 47.754 64.8836C47.754 64.3886 48.155 63.9866 48.651 63.9866C49.147 63.9866 49.548 64.3876 49.548 64.8836Z" fill="#289DE5"/>
<path d="M49.548 75.5025C49.548 75.9975 49.147 76.3995 48.651 76.3995C48.155 76.3995 47.754 75.9975 47.754 75.5025C47.754 75.0075 48.155 74.6055 48.651 74.6055C49.147 74.6055 49.548 75.0075 49.548 75.5025Z" fill="#289DE5"/>
<path d="M49.548 86.1226C49.548 86.6176 49.147 87.0196 48.651 87.0196C48.155 87.0196 47.754 86.6186 47.754 86.1226C47.754 85.6276 48.155 85.2256 48.651 85.2256C49.147 85.2256 49.548 85.6276 49.548 86.1226Z" fill="#289DE5"/>
<path d="M48.652 97.6395C49.1474 97.6395 49.549 97.2379 49.549 96.7425C49.549 96.2471 49.1474 95.8455 48.652 95.8455C48.1566 95.8455 47.755 96.2471 47.755 96.7425C47.755 97.2379 48.1566 97.6395 48.652 97.6395Z" fill="#289DE5"/>
<path d="M49.548 107.362C49.548 107.857 49.147 108.259 48.651 108.259C48.155 108.259 47.754 107.858 47.754 107.362C47.754 106.867 48.155 106.465 48.651 106.465C49.147 106.465 49.548 106.867 49.548 107.362Z" fill="#289DE5"/>
<path d="M28.722 97.6385L27.4 71.9395" stroke="#005F99" stroke-width="0.7186" stroke-miterlimit="10"/>
<path d="M72.795 97.6385L74.118 71.9395" stroke="#005F99" stroke-width="0.7186" stroke-miterlimit="10"/>
<path d="M51.0061 57.4906C46.4391 57.4906 42.7361 53.7886 42.7361 49.2206V31.6206H59.2751V49.2206C59.2751 53.7876 55.5731 57.4906 51.0061 57.4906Z" fill="#F3A396"/>
<path d="M42.7361 34.5685C42.7361 34.5685 47.2871 43.0265 52.4871 42.6125C60.5251 41.9735 59.1931 32.0095 59.1931 32.0095C59.1931 32.0095 56.0751 38.6555 51.1431 38.6615C45.6431 38.6685 42.7361 34.5685 42.7361 34.5685Z" fill="#1A1A1A"/>
<path d="M37.0791 60.0144L45.5371 49.8274L51.3571 57.9904L56.7801 49.8274L66.7981 60.0144H37.0791Z" fill="#007DDC"/>
<path d="M51.0762 57.4935L47.1312 50.5905C46.4792 49.4485 45.5862 48.4615 44.5162 47.6975L42.5172 46.2695C42.0942 45.9675 41.5332 45.9395 41.0822 46.1985L39.0662 47.3575C38.6012 47.6255 38.3422 48.1465 38.4102 48.6785L39.2392 55.1185C39.3212 55.7535 40.1022 56.0115 40.5452 55.5485L44.9582 50.9405C45.2042 50.6835 45.6232 50.7175 45.8252 51.0105L51.0752 58.6385V57.4935H51.0762Z" fill="#289DE5"/>
<path d="M51.0762 57.4935L55.0212 50.5905C55.6742 49.4485 56.5662 48.4615 57.6362 47.6975L59.6352 46.2695C60.0582 45.9675 60.6192 45.9395 61.0702 46.1985L63.0862 47.3575C63.5512 47.6255 63.8102 48.1465 63.7412 48.6785L62.9122 55.1185C62.8302 55.7535 62.0492 56.0115 61.6052 55.5485L57.1922 50.9405C56.9462 50.6835 56.5272 50.7175 56.3252 51.0105L51.0762 58.6385V57.4935Z" fill="#289DE5"/>
<path d="M64.73 9.64253C64.053 7.18853 62.462 3.72553 56.783 1.14253C47.399 -3.12547 41.071 5.93853 41.071 5.93853C38.542 5.66953 37.172 6.63753 36.623 8.91553C36.154 10.8625 36.786 14.6665 37.128 16.1245L38.999 26.0385L40.804 17.2405C42.579 11.4525 45.277 9.09553 45.277 9.09553L53.852 8.41553L62.946 25.1955L64.715 15.2655C64.939 14.0055 65.033 12.7225 64.961 11.4455C64.92 10.7075 64.847 10.0665 64.73 9.64253Z" fill="#1A1A1A"/>
<path d="M62.7141 23.1656C62.7141 23.1656 63.8321 21.3876 66.1381 22.2626C68.4441 23.1376 67.4011 28.7366 63.9421 29.4506C63.9421 29.4506 62.7021 29.7206 61.7301 28.8726C61.7301 28.8726 62.5801 24.7356 62.7141 23.1656Z" fill="#F3A396"/>
<path d="M65.6801 24.2376C65.6801 24.2376 63.7491 23.5936 62.3781 26.4376" stroke="#D26665" stroke-width="0.4968" stroke-miterlimit="10" stroke-linecap="round" stroke-linejoin="round"/>
<path d="M63.3151 25.0457C63.3151 25.0457 65.4171 26.1697 64.0291 27.8587" stroke="#D26665" stroke-width="0.4968" stroke-miterlimit="10" stroke-linecap="round" stroke-linejoin="round"/>
<path d="M39.1111 23.1656C39.1111 23.1656 37.9931 21.3876 35.6871 22.2626C33.3811 23.1376 34.4241 28.7366 37.8831 29.4506C37.8831 29.4506 39.1231 29.7206 40.0951 28.8726C40.0951 28.8726 39.2451 24.7356 39.1111 23.1656Z" fill="#F3A396"/>
<path d="M36.145 24.2376C36.145 24.2376 38.076 23.5936 39.447 26.4376" stroke="#D26665" stroke-width="0.4968" stroke-miterlimit="10" stroke-linecap="round" stroke-linejoin="round"/>
<path d="M38.51 25.0457C38.51 25.0457 36.408 26.1697 37.797 27.8587" stroke="#D26665" stroke-width="0.4968" stroke-miterlimit="10" stroke-linecap="round" stroke-linejoin="round"/>
<path d="M62.945 17.8515C62.946 21.2265 62.615 28.2895 60.539 32.4815C58.59 36.4175 55.368 38.5355 51.143 38.6615C46.918 38.7875 43.771 37.1595 41.248 32.0515C38.726 26.9435 38.846 17.9145 38.846 17.9145C38.846 17.9145 38.846 5.85547 50.764 5.85547C63.317 5.85547 62.945 17.8515 62.945 17.8515Z" fill="#F3A396"/>
<path d="M61.8591 7.36441C61.5481 7.46841 51.5291 4.69141 51.5291 4.69141L42.7361 7.36441C42.7361 7.36441 42.7391 7.37141 42.7411 7.37741C35.0111 9.46841 38.4171 16.7894 38.4171 16.7894C41.5981 15.1554 41.3631 11.8074 41.9661 9.39641C43.3731 11.2454 48.7611 14.6144 55.3891 14.4864C62.1781 14.3554 62.9451 11.7114 62.9451 11.7114C62.9451 11.7114 62.1701 7.26041 61.8591 7.36441Z" fill="#1A1A1A"/>
<path d="M50.045 21.1504V26.5344C50.045 26.6544 50.068 26.7694 50.11 26.8744C50.275 27.2874 50.751 27.4854 51.181 27.3714L52.106 27.1254" stroke="#D26665" stroke-width="0.4968" stroke-miterlimit="10" stroke-linecap="round" stroke-linejoin="round"/>
<path d="M46.5461 21.5854C46.5461 22.2064 46.0421 22.7104 45.4211 22.7104C44.8001 22.7104 44.2961 22.2064 44.2961 21.5854C44.2961 20.9644 44.8001 20.4604 45.4211 20.4604C46.0421 20.4604 46.5461 20.9644 46.5461 21.5854Z" fill="#1A1A1A"/>
<path d="M47.6811 18.8785L47.7221 16.7405L43.7571 16.8115C43.2571 16.8205 42.7741 17.0015 42.3901 17.3225L40.0951 19.2465L43.4381 18.7485L47.6811 18.8785Z" fill="#1A1A1A"/>
<path d="M54.5581 21.5854C54.5581 22.2064 55.0621 22.7104 55.6831 22.7104C56.3041 22.7104 56.8081 22.2064 56.8081 21.5854C56.8081 20.9644 56.3041 20.4604 55.6831 20.4604C55.0621 20.4604 54.5581 20.9644 54.5581 21.5854Z" fill="#1A1A1A"/>
<path d="M53.4231 18.8785L53.3821 16.7405L57.3471 16.8115C57.8481 16.8205 58.3301 17.0015 58.7141 17.3225L61.0091 19.2465L57.6661 18.7485L53.4231 18.8785Z" fill="#1A1A1A"/>
<path d="M49.972 29.3896C49.491 29.6506 49.081 29.7976 48.621 29.9396C48.171 30.0736 47.71 30.1646 47.245 30.2136C46.318 30.3206 45.366 30.2096 44.506 29.9056C44.328 29.8426 44.235 29.6486 44.298 29.4706C44.353 29.3136 44.512 29.2226 44.67 29.2466L44.683 29.2486C45.478 29.3676 46.277 29.3066 47.026 29.0736C47.4 28.9606 47.764 28.8136 48.109 28.6356C48.443 28.4626 48.806 28.2356 49.045 28.0346C49.393 27.7396 49.914 27.7826 50.208 28.1306C50.503 28.4786 50.459 28.9996 50.112 29.2936C50.07 29.3296 50.018 29.3636 49.972 29.3896Z" fill="#1A1A1A"/>
<path d="M52.5561 28.0345C52.7951 28.2345 53.1581 28.4625 53.4921 28.6355C53.8371 28.8135 54.2011 28.9605 54.5751 29.0735C55.3231 29.3075 56.1231 29.3675 56.9181 29.2485L56.9311 29.2465C57.1171 29.2185 57.2911 29.3475 57.3191 29.5335C57.3431 29.6975 57.2461 29.8525 57.0951 29.9055C56.2351 30.2095 55.2831 30.3195 54.3561 30.2135C53.8911 30.1645 53.4311 30.0735 52.9801 29.9395C52.5211 29.7975 52.1101 29.6505 51.6291 29.3895C51.2281 29.1725 51.0801 28.6715 51.2971 28.2705C51.5141 27.8695 52.0151 27.7215 52.4161 27.9385C52.4641 27.9645 52.5151 28.0005 52.5561 28.0345Z" fill="#1A1A1A"/>
<path d="M47.54 30.8374H53.697" stroke="#D26665" stroke-width="0.4968" stroke-miterlimit="10" stroke-linecap="round" stroke-linejoin="round"/>
<path d="M49.149 32.6904C49.149 32.6904 50.456 33.1004 52.089 32.6904" stroke="#D26665" stroke-width="0.3726" stroke-miterlimit="10" stroke-linecap="round" stroke-linejoin="round"/>
<path d="M73.7069 138.674H28.1689L29.66 115.583H71.7199L73.7069 138.674Z" fill="#E50303"/>
<path d="M28.169 138.398L26.814 191.726C26.652 196.544 30.515 200.539 35.336 200.539C39.701 200.539 43.361 197.243 43.816 192.902L49.177 139.851C49.83 133.632 44.952 128.216 38.699 128.216C33.018 128.216 28.36 132.72 28.169 138.398Z" fill="#E50303"/>
<path d="M26.231 262.129L27.299 244.563L35.524 244.601L34.473 262.136L26.231 262.129Z" fill="#E50303"/>
<path d="M25.6019 262.126L15.3289 267.72L9.5469 268.849C6.8899 269.368 4.8919 271.577 4.6419 274.273L4.5249 275.534L35.6899 275.675L35.7509 262.172L25.6019 262.126Z" fill="#E50303"/>
<path d="M21.28 264.813C21.28 264.813 23.223 258.672 20.952 257.65C17.702 256.188 18.265 261.413 21.28 264.813Z" stroke="#E50303" stroke-width="0.4606" stroke-miterlimit="10" stroke-linecap="round" stroke-linejoin="round"/>
<path d="M21.2119 264.771C21.2119 264.771 26.1489 260.634 27.9589 262.345C30.5489 264.792 25.5049 266.263 21.2119 264.771Z" stroke="#E50303" stroke-width="0.4606" stroke-miterlimit="10" stroke-linecap="round" stroke-linejoin="round"/>
<path d="M35.815 275.885L4.39795 275.743L4.40995 272.969L35.828 273.111L35.815 275.885Z" fill="#E50303"/>
<path d="M43.7999 193.199L37.0189 254.976H24.9989L26.8439 192.001C26.9799 187.239 30.9999 183.517 35.7589 183.747C40.6649 183.984 44.3509 188.317 43.7999 193.199Z" fill="#E50303"/>
<path d="M73.6299 138.398L74.9849 191.726C75.1469 196.544 71.2839 200.539 66.4629 200.539C62.0979 200.539 58.4379 197.243 57.9829 192.902L52.6219 139.851C51.9689 133.632 56.8469 128.216 63.0999 128.216C68.7819 128.216 73.4399 132.72 73.6299 138.398Z" fill="#E50303"/>
<path d="M75.0149 262.129L73.9469 244.563L65.7219 244.601L66.7729 262.136L75.0149 262.129Z" fill="#E50303"/>
<path d="M75.644 262.126L85.917 267.72L91.699 268.849C94.356 269.368 96.354 271.577 96.604 274.273L96.721 275.534L65.556 275.675L65.495 262.172L75.644 262.126Z" fill="#E50303"/>
<path d="M79.9659 264.813C79.9659 264.813 78.0229 258.672 80.2939 257.65C83.5439 256.188 82.9809 261.413 79.9659 264.813Z" stroke="#E50303" stroke-width="0.4606" stroke-miterlimit="10" stroke-linecap="round" stroke-linejoin="round"/>
<path d="M80.0339 264.771C80.0339 264.771 75.0969 260.634 73.2869 262.345C70.6969 264.792 75.7419 266.263 80.0339 264.771Z" stroke="#E50303" stroke-width="0.4606" stroke-miterlimit="10" stroke-linecap="round" stroke-linejoin="round"/>
<path d="M65.431 275.885L96.848 275.743L96.836 272.969L65.418 273.111L65.431 275.885Z" fill="#E50303"/>
<path d="M58 193.199L64.781 254.976H76.801L74.957 192.001C74.821 187.239 70.801 183.517 66.042 183.747C61.135 183.984 57.448 188.317 58 193.199Z" fill="#E50303"/>
<path d="M20.866 61.1596C18.701 71.9856 12.928 96.1766 10 108.327C9.02105 112.389 11.413 116.499 15.428 117.657C19.687 118.886 24.115 116.327 25.176 112.023L36.888 64.5206C37.898 59.9156 34.8191 55.4126 30.1621 54.6806C25.8261 54.0006 21.726 56.8566 20.866 61.1596Z" fill="#E50303"/>
<path d="M5.71702 158.318C3.74002 157.911 2.46802 155.979 2.87502 154.002L4.76502 145.094C5.17202 143.117 7.10402 141.845 9.08102 142.252C11.058 142.659 12.33 144.591 11.923 146.568L10.033 155.476C9.62602 157.452 7.69402 158.724 5.71702 158.318Z" fill="#E50303"/>
<path d="M11.767 157.594C11.02 155.751 10.053 155.144 10.053 155.144C10.441 153.445 9.32303 151.769 7.60603 151.475L6.39004 151.266C4.80104 150.993 3.27704 152.009 2.91604 153.58L2.89504 153.67C2.89504 153.67 0.663035 157.728 0.161035 163.279C-0.487965 170.45 2.55004 174.094 4.78904 174.126C6.90504 174.157 8.10004 165.748 8.58204 162.633L9.89804 165.8C10.065 166.202 10.474 166.449 10.907 166.41C11.373 166.368 11.747 166.007 11.805 165.542L12.268 161.861C12.45 160.419 12.313 158.94 11.767 157.594Z" fill="#E50303"/>
<path d="M9.985 108.279L0 149.077L15.165 153.219L25.328 111.498C26.295 107.088 23.347 102.776 18.887 102.075C14.735 101.424 10.809 104.158 9.985 108.279Z" fill="#E50303"/>
<path d="M80.65 61.1596C82.815 71.9856 88.587 96.1766 91.516 108.327C92.495 112.389 90.103 116.499 86.088 117.657C81.829 118.886 77.401 116.327 76.34 112.023L64.628 64.5206C63.618 59.9156 66.697 55.4126 71.354 54.6806C75.689 54.0006 79.789 56.8566 80.65 61.1596Z" fill="#E50303"/>
<path d="M95.7979 158.318C97.7749 157.911 99.0469 155.979 98.6399 154.002L96.7499 145.094C96.3429 143.117 94.4109 141.845 92.4339 142.252C90.4569 142.659 89.1849 144.591 89.5919 146.568L91.4819 155.476C91.8889 157.452 93.8209 158.724 95.7979 158.318Z" fill="#E50303"/>
<path d="M89.748 157.594C90.495 155.751 91.462 155.144 91.462 155.144C91.074 153.445 92.192 151.769 93.91 151.475L95.126 151.266C96.715 150.993 98.239 152.009 98.6 153.58L98.621 153.67C98.621 153.67 100.853 157.728 101.355 163.279C102.004 170.45 98.966 174.094 96.727 174.126C94.611 174.157 93.416 165.748 92.934 162.633L91.618 165.8C91.451 166.202 91.042 166.449 90.609 166.41C90.143 166.368 89.769 166.007 89.711 165.542L89.248 161.861C89.066 160.419 89.203 158.94 89.748 157.594Z" fill="#E50303"/>
<path d="M91.53 108.279L101.515 149.077L86.35 153.219L76.187 111.498C75.22 107.088 78.168 102.776 82.628 102.075C86.78 101.424 90.706 104.158 91.53 108.279Z" fill="#E50303"/>
<path d="M58.557 47.8945L50.664 48.0065L42.98 47.8945L26.519 54.9295L29.66 115.584H50.664H71.877L75.018 54.9295L58.557 47.8945Z" fill="#007DDC"/>
<path d="M51.076 58.6396V115.724" stroke="#005F99" stroke-width="0.7186" stroke-miterlimit="10"/>
<path d="M49.548 64.8836C49.548 65.3786 49.147 65.7806 48.651 65.7806C48.155 65.7806 47.754 65.3796 47.754 64.8836C47.754 64.3886 48.155 63.9866 48.651 63.9866C49.147 63.9866 49.548 64.3876 49.548 64.8836Z" fill="#289DE5"/>
<path d="M49.548 75.5025C49.548 75.9975 49.147 76.3995 48.651 76.3995C48.155 76.3995 47.754 75.9975 47.754 75.5025C47.754 75.0075 48.155 74.6055 48.651 74.6055C49.147 74.6055 49.548 75.0075 49.548 75.5025Z" fill="#289DE5"/>
<path d="M49.548 86.1226C49.548 86.6176 49.147 87.0196 48.651 87.0196C48.155 87.0196 47.754 86.6186 47.754 86.1226C47.754 85.6276 48.155 85.2256 48.651 85.2256C49.147 85.2256 49.548 85.6276 49.548 86.1226Z" fill="#289DE5"/>
<path d="M48.652 97.6395C49.1474 97.6395 49.549 97.2379 49.549 96.7425C49.549 96.2471 49.1474 95.8455 48.652 95.8455C48.1566 95.8455 47.755 96.2471 47.755 96.7425C47.755 97.2379 48.1566 97.6395 48.652 97.6395Z" fill="#289DE5"/>
<path d="M49.548 107.362C49.548 107.857 49.147 108.259 48.651 108.259C48.155 108.259 47.754 107.858 47.754 107.362C47.754 106.867 48.155 106.465 48.651 106.465C49.147 106.465 49.548 106.867 49.548 107.362Z" fill="#289DE5"/>
<path d="M28.722 97.6385L27.4 71.9395" stroke="#005F99" stroke-width="0.7186" stroke-miterlimit="10"/>
<path d="M72.795 97.6385L74.118 71.9395" stroke="#005F99" stroke-width="0.7186" stroke-miterlimit="10"/>
<path d="M51.0061 57.4906C46.4391 57.4906 42.7361 53.7886 42.7361 49.2206V31.6206H59.2751V49.2206C59.2751 53.7876 55.5731 57.4906 51.0061 57.4906Z" fill="#F3A396"/>
<path d="M42.7361 34.5685C42.7361 34.5685 47.2871 43.0265 52.4871 42.6125C60.5251 41.9735 59.1931 32.0095 59.1931 32.0095C59.1931 32.0095 56.0751 38.6555 51.1431 38.6615C45.6431 38.6685 42.7361 34.5685 42.7361 34.5685Z" fill="#1A1A1A"/>
<path d="M37.0791 60.0144L45.5371 49.8274L51.3571 57.9904L56.7801 49.8274L66.7981 60.0144H37.0791Z" fill="#007DDC"/>
<path d="M51.0762 57.4935L47.1312 50.5905C46.4792 49.4485 45.5862 48.4615 44.5162 47.6975L42.5172 46.2695C42.0942 45.9675 41.5332 45.9395 41.0822 46.1985L39.0662 47.3575C38.6012 47.6255 38.3422 48.1465 38.4102 48.6785L39.2392 55.1185C39.3212 55.7535 40.1022 56.0115 40.5452 55.5485L44.9582 50.9405C45.2042 50.6835 45.6232 50.7175 45.8252 51.0105L51.0752 58.6385V57.4935H51.0762Z" fill="#289DE5"/>
<path d="M51.0762 57.4935L55.0212 50.5905C55.6742 49.4485 56.5662 48.4615 57.6362 47.6975L59.6352 46.2695C60.0582 45.9675 60.6192 45.9395 61.0702 46.1985L63.0862 47.3575C63.5512 47.6255 63.8102 48.1465 63.7412 48.6785L62.9122 55.1185C62.8302 55.7535 62.0492 56.0115 61.6052 55.5485L57.1922 50.9405C56.9462 50.6835 56.5272 50.7175 56.3252 51.0105L51.0762 58.6385V57.4935Z" fill="#289DE5"/>
<path d="M64.73 9.64253C64.053 7.18853 62.462 3.72553 56.783 1.14253C47.399 -3.12547 41.071 5.93853 41.071 5.93853C38.542 5.66953 37.172 6.63753 36.623 8.91553C36.154 10.8625 36.786 14.6665 37.128 16.1245L38.999 26.0385L40.804 17.2405C42.579 11.4525 45.277 9.09553 45.277 9.09553L53.852 8.41553L62.946 25.1955L64.715 15.2655C64.939 14.0055 65.033 12.7225 64.961 11.4455C64.92 10.7075 64.847 10.0665 64.73 9.64253Z" fill="#1A1A1A"/>
<path d="M62.7141 23.1656C62.7141 23.1656 63.8321 21.3876 66.1381 22.2626C68.4441 23.1376 67.4011 28.7366 63.9421 29.4506C63.9421 29.4506 62.7021 29.7206 61.7301 28.8726C61.7301 28.8726 62.5801 24.7356 62.7141 23.1656Z" fill="#F3A396"/>
<path d="M65.6801 24.2376C65.6801 24.2376 63.7491 23.5936 62.3781 26.4376" stroke="#D26665" stroke-width="0.4968" stroke-miterlimit="10" stroke-linecap="round" stroke-linejoin="round"/>
<path d="M63.3151 25.0457C63.3151 25.0457 65.4171 26.1697 64.0291 27.8587" stroke="#D26665" stroke-width="0.4968" stroke-miterlimit="10" stroke-linecap="round" stroke-linejoin="round"/>
<path d="M39.1111 23.1656C39.1111 23.1656 37.9931 21.3876 35.6871 22.2626C33.3811 23.1376 34.4241 28.7366 37.8831 29.4506C37.8831 29.4506 39.1231 29.7206 40.0951 28.8726C40.0951 28.8726 39.2451 24.7356 39.1111 23.1656Z" fill="#F3A396"/>
<path d="M36.145 24.2376C36.145 24.2376 38.076 23.5936 39.447 26.4376" stroke="#D26665" stroke-width="0.4968" stroke-miterlimit="10" stroke-linecap="round" stroke-linejoin="round"/>
<path d="M38.51 25.0457C38.51 25.0457 36.408 26.1697 37.797 27.8587" stroke="#D26665" stroke-width="0.4968" stroke-miterlimit="10" stroke-linecap="round" stroke-linejoin="round"/>
<path d="M62.945 17.8515C62.946 21.2265 62.615 28.2895 60.539 32.4815C58.59 36.4175 55.368 38.5355 51.143 38.6615C46.918 38.7875 43.771 37.1595 41.248 32.0515C38.726 26.9435 38.846 17.9145 38.846 17.9145C38.846 17.9145 38.846 5.85547 50.764 5.85547C63.317 5.85547 62.945 17.8515 62.945 17.8515Z" fill="#F3A396"/>
<path d="M61.8591 7.36441C61.5481 7.46841 51.5291 4.69141 51.5291 4.69141L42.7361 7.36441C42.7361 7.36441 42.7391 7.37141 42.7411 7.37741C35.0111 9.46841 38.4171 16.7894 38.4171 16.7894C41.5981 15.1554 41.3631 11.8074 41.9661 9.39641C43.3731 11.2454 48.7611 14.6144 55.3891 14.4864C62.1781 14.3554 62.9451 11.7114 62.9451 11.7114C62.9451 11.7114 62.1701 7.26041 61.8591 7.36441Z" fill="#1A1A1A"/>
<path d="M50.045 21.1504V26.5344C50.045 26.6544 50.068 26.7694 50.11 26.8744C50.275 27.2874 50.751 27.4854 51.181 27.3714L52.106 27.1254" stroke="#D26665" stroke-width="0.4968" stroke-miterlimit="10" stroke-linecap="round" stroke-linejoin="round"/>
<path d="M46.5461 21.5854C46.5461 22.2064 46.0421 22.7104 45.4211 22.7104C44.8001 22.7104 44.2961 22.2064 44.2961 21.5854C44.2961 20.9644 44.8001 20.4604 45.4211 20.4604C46.0421 20.4604 46.5461 20.9644 46.5461 21.5854Z" fill="#1A1A1A"/>
<path d="M47.6811 18.8785L47.7221 16.7405L43.7571 16.8115C43.2571 16.8205 42.7741 17.0015 42.3901 17.3225L40.0951 19.2465L43.4381 18.7485L47.6811 18.8785Z" fill="#1A1A1A"/>
<path d="M54.5581 21.5854C54.5581 22.2064 55.0621 22.7104 55.6831 22.7104C56.3041 22.7104 56.8081 22.2064 56.8081 21.5854C56.8081 20.9644 56.3041 20.4604 55.6831 20.4604C55.0621 20.4604 54.5581 20.9644 54.5581 21.5854Z" fill="#1A1A1A"/>
<path d="M53.4231 18.8785L53.3821 16.7405L57.3471 16.8115C57.8481 16.8205 58.3301 17.0015 58.7141 17.3225L61.0091 19.2465L57.6661 18.7485L53.4231 18.8785Z" fill="#1A1A1A"/>
<path d="M49.972 29.3896C49.491 29.6506 49.081 29.7976 48.621 29.9396C48.171 30.0736 47.71 30.1646 47.245 30.2136C46.318 30.3206 45.366 30.2096 44.506 29.9056C44.328 29.8426 44.235 29.6486 44.298 29.4706C44.353 29.3136 44.512 29.2226 44.67 29.2466L44.683 29.2486C45.478 29.3676 46.277 29.3066 47.026 29.0736C47.4 28.9606 47.764 28.8136 48.109 28.6356C48.443 28.4626 48.806 28.2356 49.045 28.0346C49.393 27.7396 49.914 27.7826 50.208 28.1306C50.503 28.4786 50.459 28.9996 50.112 29.2936C50.07 29.3296 50.018 29.3636 49.972 29.3896Z" fill="#1A1A1A"/>
<path d="M52.5561 28.0345C52.7951 28.2345 53.1581 28.4625 53.4921 28.6355C53.8371 28.8135 54.2011 28.9605 54.5751 29.0735C55.3231 29.3075 56.1231 29.3675 56.9181 29.2485L56.9311 29.2465C57.1171 29.2185 57.2911 29.3475 57.3191 29.5335C57.3431 29.6975 57.2461 29.8525 57.0951 29.9055C56.2351 30.2095 55.2831 30.3195 54.3561 30.2135C53.8911 30.1645 53.4311 30.0735 52.9801 29.9395C52.5211 29.7975 52.1101 29.6505 51.6291 29.3895C51.2281 29.1725 51.0801 28.6715 51.2971 28.2705C51.5141 27.8695 52.0151 27.7215 52.4161 27.9385C52.4641 27.9645 52.5151 28.0005 52.5561 28.0345Z" fill="#1A1A1A"/>
<path d="M47.54 30.8374H53.697" stroke="#D26665" stroke-width="0.4968" stroke-miterlimit="10" stroke-linecap="round" stroke-linejoin="round"/>
<path d="M49.149 32.6904C49.149 32.6904 50.456 33.1004 52.089 32.6904" stroke="#D26665" stroke-width="0.3726" stroke-miterlimit="10" stroke-linecap="round" stroke-linejoin="round"/>
</svg>
