<svg width="102" height="276" viewBox="0 0 102 276" fill="none" xmlns="http://www.w3.org/2000/svg">
<path d="M73.7069 138.674H28.1689L29.66 115.583H71.7199L73.7069 138.674Z" fill="#04162E"/>
<path d="M28.169 138.398L26.814 191.726C26.652 196.544 30.515 200.539 35.336 200.539C39.701 200.539 43.361 197.243 43.816 192.902L49.177 139.851C49.83 133.632 44.952 128.216 38.699 128.216C33.018 128.216 28.36 132.72 28.169 138.398Z" fill="#E50303"/>
<path d="M26.231 262.129L27.299 244.563L35.524 244.601L34.473 262.136L26.231 262.129Z" fill="#E50303"/>
<path d="M25.6019 262.126L15.3289 267.72L9.5469 268.849C6.8899 269.368 4.8919 271.577 4.6419 274.273L4.5249 275.534L35.6899 275.675L35.7509 262.172L25.6019 262.126Z" fill="#E50303"/>
<path d="M21.2798 264.813C21.2798 264.813 23.2228 258.672 20.9518 257.65C17.7018 256.188 18.2648 261.413 21.2798 264.813Z" stroke="#E50303" stroke-width="0.4606" stroke-miterlimit="10" stroke-linecap="round" stroke-linejoin="round"/>
<path d="M21.2119 264.771C21.2119 264.771 26.1489 260.634 27.9589 262.345C30.5489 264.792 25.5049 266.263 21.2119 264.771Z" stroke="#E50303" stroke-width="0.4606" stroke-miterlimit="10" stroke-linecap="round" stroke-linejoin="round"/>
<path d="M35.815 275.885L4.39795 275.743L4.40995 272.969L35.828 273.111L35.815 275.885Z" fill="#E50303"/>
<path d="M43.8 193.199L37.019 254.976H24.999L26.844 192.001C26.98 187.239 31 183.517 35.759 183.747C40.665 183.984 44.351 188.317 43.8 193.199Z" fill="#E50303"/>
<path d="M73.6299 138.398L74.9849 191.726C75.1469 196.544 71.2839 200.539 66.4629 200.539C62.0979 200.539 58.4379 197.243 57.9829 192.902L52.6219 139.851C51.9689 133.632 56.8469 128.216 63.0999 128.216C68.7819 128.216 73.4399 132.72 73.6299 138.398Z" fill="#E50303"/>
<path d="M75.0147 262.129L73.9467 244.563L65.7217 244.601L66.7727 262.136L75.0147 262.129Z" fill="#E50303"/>
<path d="M75.6436 262.126L85.9166 267.72L91.6986 268.849C94.3556 269.368 96.3536 271.577 96.6036 274.273L96.7206 275.534L65.5556 275.675L65.4946 262.172L75.6436 262.126Z" fill="#E50303"/>
<path d="M79.9659 264.813C79.9659 264.813 78.0229 258.672 80.2939 257.65C83.5439 256.188 82.9809 261.413 79.9659 264.813Z" stroke="#E50303" stroke-width="0.4606" stroke-miterlimit="10" stroke-linecap="round" stroke-linejoin="round"/>
<path d="M80.0338 264.771C80.0338 264.771 75.0968 260.634 73.2868 262.345C70.6968 264.792 75.7418 266.263 80.0338 264.771Z" stroke="#E50303" stroke-width="0.4606" stroke-miterlimit="10" stroke-linecap="round" stroke-linejoin="round"/>
<path d="M65.4307 275.885L96.8477 275.743L96.8357 272.969L65.4177 273.111L65.4307 275.885Z" fill="#E50303"/>
<path d="M57.9998 193.199L64.7808 254.976H76.8008L74.9568 192.001C74.8208 187.239 70.8008 183.517 66.0418 183.747C61.1348 183.984 57.4478 188.317 57.9998 193.199Z" fill="#E50303"/>
<path d="M20.8659 61.1596C18.7009 71.9856 12.9279 96.1766 9.99992 108.327C9.02092 112.389 11.4129 116.499 15.4279 117.657C19.6869 118.886 24.1149 116.327 25.1759 112.023L36.8879 64.5206C37.8979 59.9156 34.8189 55.4126 30.1619 54.6806C25.8259 54.0006 21.7259 56.8566 20.8659 61.1596Z" fill="#007DDC"/>
<path d="M5.7169 158.318C3.7399 157.911 2.4679 155.979 2.8749 154.002L4.7649 145.094C5.1719 143.117 7.1039 141.845 9.0809 142.252C11.0579 142.659 12.3299 144.591 11.9229 146.568L10.0329 155.476C9.6259 157.452 7.6939 158.724 5.7169 158.318Z" fill="#F3A396"/>
<path d="M11.767 157.594C11.02 155.751 10.053 155.144 10.053 155.144C10.441 153.445 9.32303 151.769 7.60603 151.475L6.39004 151.266C4.80104 150.993 3.27704 152.009 2.91604 153.58L2.89504 153.67C2.89504 153.67 0.663035 157.728 0.161035 163.279C-0.487965 170.45 2.55004 174.094 4.78904 174.126C6.90504 174.157 8.10004 165.748 8.58204 162.633L9.89804 165.8C10.065 166.202 10.474 166.449 10.907 166.41C11.373 166.368 11.747 166.007 11.805 165.542L12.268 161.861C12.45 160.419 12.313 158.94 11.767 157.594Z" fill="#F3A396"/>
<path d="M9.985 108.279L0 149.077L15.165 153.219L25.328 111.498C26.295 107.088 23.347 102.776 18.887 102.075C14.735 101.424 10.809 104.158 9.985 108.279Z" fill="#007DDC"/>
<path d="M80.6499 61.1596C82.8149 71.9856 88.5869 96.1766 91.5159 108.327C92.4949 112.389 90.1029 116.499 86.0879 117.657C81.8289 118.886 77.4009 116.327 76.3399 112.023L64.6279 64.5206C63.6179 59.9156 66.6969 55.4126 71.3539 54.6806C75.6889 54.0006 79.7889 56.8566 80.6499 61.1596Z" fill="#007DDC"/>
<path d="M95.7979 158.318C97.7749 157.911 99.0469 155.979 98.6399 154.002L96.7499 145.094C96.3429 143.117 94.4109 141.845 92.4339 142.252C90.4569 142.659 89.1849 144.591 89.5919 146.568L91.4819 155.476C91.8889 157.452 93.8209 158.724 95.7979 158.318Z" fill="#F3A396"/>
<path d="M89.7478 157.594C90.4948 155.751 91.4618 155.144 91.4618 155.144C91.0738 153.445 92.1918 151.769 93.9098 151.475L95.1258 151.266C96.7148 150.993 98.2388 152.009 98.5998 153.58L98.6208 153.67C98.6208 153.67 100.853 157.728 101.355 163.279C102.004 170.45 98.9658 174.094 96.7268 174.126C94.6108 174.157 93.4158 165.748 92.9338 162.633L91.6178 165.8C91.4508 166.202 91.0418 166.449 90.6088 166.41C90.1428 166.368 89.7688 166.007 89.7108 165.542L89.2478 161.861C89.0658 160.419 89.2028 158.94 89.7478 157.594Z" fill="#F3A396"/>
<path d="M91.5299 108.279L101.515 149.077L86.3499 153.219L76.1869 111.498C75.2199 107.088 78.1679 102.776 82.6279 102.075C86.7799 101.424 90.7059 104.158 91.5299 108.279Z" fill="#007DDC"/>
<path d="M58.557 47.8945L50.664 48.0065L42.98 47.8945L26.519 54.9295L29.66 115.584H50.664H71.877L75.018 54.9295L58.557 47.8945Z" fill="#007DDC"/>
<path d="M51.0759 58.6396V115.724" stroke="#005F99" stroke-width="0.7186" stroke-miterlimit="10"/>
<path d="M49.5482 64.8836C49.5482 65.3786 49.1472 65.7806 48.6512 65.7806C48.1552 65.7806 47.7542 65.3796 47.7542 64.8836C47.7542 64.3886 48.1552 63.9866 48.6512 63.9866C49.1472 63.9866 49.5482 64.3876 49.5482 64.8836Z" fill="#289DE5"/>
<path d="M49.5482 75.5025C49.5482 75.9975 49.1472 76.3995 48.6512 76.3995C48.1552 76.3995 47.7542 75.9975 47.7542 75.5025C47.7542 75.0075 48.1552 74.6055 48.6512 74.6055C49.1472 74.6055 49.5482 75.0075 49.5482 75.5025Z" fill="#289DE5"/>
<path d="M49.5482 86.1226C49.5482 86.6176 49.1472 87.0196 48.6512 87.0196C48.1552 87.0196 47.7542 86.6186 47.7542 86.1226C47.7542 85.6276 48.1552 85.2256 48.6512 85.2256C49.1472 85.2256 49.5482 85.6276 49.5482 86.1226Z" fill="#289DE5"/>
<path d="M48.6521 97.6395C49.1475 97.6395 49.5491 97.2379 49.5491 96.7425C49.5491 96.2471 49.1475 95.8455 48.6521 95.8455C48.1567 95.8455 47.7551 96.2471 47.7551 96.7425C47.7551 97.2379 48.1567 97.6395 48.6521 97.6395Z" fill="#289DE5"/>
<path d="M49.5482 107.362C49.5482 107.857 49.1472 108.259 48.6512 108.259C48.1552 108.259 47.7542 107.858 47.7542 107.362C47.7542 106.867 48.1552 106.465 48.6512 106.465C49.1472 106.465 49.5482 106.867 49.5482 107.362Z" fill="#289DE5"/>
<path d="M28.7221 97.6385L27.4001 71.9395" stroke="#005F99" stroke-width="0.7186" stroke-miterlimit="10"/>
<path d="M72.7949 97.6385L74.1179 71.9395" stroke="#005F99" stroke-width="0.7186" stroke-miterlimit="10"/>
<path d="M51.0061 57.4906C46.4391 57.4906 42.7361 53.7886 42.7361 49.2206V31.6206H59.2751V49.2206C59.2751 53.7876 55.5731 57.4906 51.0061 57.4906Z" fill="#F3A396"/>
<path d="M42.7361 34.5685C42.7361 34.5685 47.2871 43.0265 52.4871 42.6125C60.5251 41.9735 59.1931 32.0095 59.1931 32.0095C59.1931 32.0095 56.0751 38.6555 51.1431 38.6615C45.6431 38.6685 42.7361 34.5685 42.7361 34.5685Z" fill="#1A1A1A"/>
<path d="M37.0791 60.0144L45.5371 49.8274L51.3571 57.9904L56.7801 49.8274L66.7981 60.0144H37.0791Z" fill="#007DDC"/>
<path d="M51.0762 57.4935L47.1312 50.5905C46.4792 49.4485 45.5862 48.4615 44.5162 47.6975L42.5172 46.2695C42.0942 45.9675 41.5332 45.9395 41.0822 46.1985L39.0662 47.3575C38.6012 47.6255 38.3422 48.1465 38.4102 48.6785L39.2392 55.1185C39.3212 55.7535 40.1022 56.0115 40.5452 55.5485L44.9582 50.9405C45.2042 50.6835 45.6232 50.7175 45.8252 51.0105L51.0752 58.6385V57.4935H51.0762Z" fill="#289DE5"/>
<path d="M51.0762 57.4935L55.0212 50.5905C55.6742 49.4485 56.5662 48.4615 57.6362 47.6975L59.6352 46.2695C60.0582 45.9675 60.6192 45.9395 61.0702 46.1985L63.0862 47.3575C63.5512 47.6255 63.8102 48.1465 63.7412 48.6785L62.9122 55.1185C62.8302 55.7535 62.0492 56.0115 61.6052 55.5485L57.1922 50.9405C56.9462 50.6835 56.5272 50.7175 56.3252 51.0105L51.0762 58.6385V57.4935Z" fill="#289DE5"/>
<path d="M64.7301 9.64253C64.0531 7.18853 62.4621 3.72553 56.7831 1.14253C47.3991 -3.12547 41.0711 5.93853 41.0711 5.93853C38.5421 5.66953 37.1721 6.63753 36.6231 8.91553C36.1541 10.8625 36.7861 14.6665 37.1281 16.1245L38.9991 26.0385L40.8041 17.2405C42.5791 11.4525 45.2771 9.09553 45.2771 9.09553L53.8521 8.41553L62.9461 25.1955L64.7151 15.2655C64.9391 14.0055 65.0331 12.7225 64.9611 11.4455C64.9201 10.7075 64.8471 10.0665 64.7301 9.64253Z" fill="#1A1A1A"/>
<path d="M62.714 23.1656C62.714 23.1656 63.832 21.3876 66.138 22.2626C68.444 23.1376 67.401 28.7366 63.942 29.4506C63.942 29.4506 62.702 29.7206 61.73 28.8726C61.73 28.8726 62.58 24.7356 62.714 23.1656Z" fill="#F3A396"/>
<path d="M65.6799 24.2376C65.6799 24.2376 63.7489 23.5936 62.3779 26.4376" stroke="#D26665" stroke-width="0.4968" stroke-miterlimit="10" stroke-linecap="round" stroke-linejoin="round"/>
<path d="M63.3149 25.0457C63.3149 25.0457 65.4169 26.1697 64.0289 27.8587" stroke="#D26665" stroke-width="0.4968" stroke-miterlimit="10" stroke-linecap="round" stroke-linejoin="round"/>
<path d="M39.1111 23.1656C39.1111 23.1656 37.9931 21.3876 35.6871 22.2626C33.3811 23.1376 34.4241 28.7366 37.8831 29.4506C37.8831 29.4506 39.1231 29.7206 40.0951 28.8726C40.0951 28.8726 39.2451 24.7356 39.1111 23.1656Z" fill="#F3A396"/>
<path d="M36.145 24.2376C36.145 24.2376 38.076 23.5936 39.447 26.4376" stroke="#D26665" stroke-width="0.4968" stroke-miterlimit="10" stroke-linecap="round" stroke-linejoin="round"/>
<path d="M38.5101 25.0457C38.5101 25.0457 36.4081 26.1697 37.7971 27.8587" stroke="#D26665" stroke-width="0.4968" stroke-miterlimit="10" stroke-linecap="round" stroke-linejoin="round"/>
<path d="M62.9451 17.8515C62.9461 21.2265 62.6151 28.2895 60.5391 32.4815C58.5901 36.4175 55.3681 38.5355 51.1431 38.6615C46.9181 38.7875 43.7711 37.1595 41.2481 32.0515C38.7261 26.9435 38.8461 17.9145 38.8461 17.9145C38.8461 17.9145 38.8461 5.85547 50.7641 5.85547C63.3171 5.85547 62.9451 17.8515 62.9451 17.8515Z" fill="#F3A396"/>
<path d="M61.8591 7.36441C61.5481 7.46841 51.5291 4.69141 51.5291 4.69141L42.7361 7.36441C42.7361 7.36441 42.7391 7.37141 42.7411 7.37741C35.0111 9.46841 38.4171 16.7894 38.4171 16.7894C41.5981 15.1554 41.3631 11.8074 41.9661 9.39641C43.3731 11.2454 48.7611 14.6144 55.3891 14.4864C62.1781 14.3554 62.9451 11.7114 62.9451 11.7114C62.9451 11.7114 62.1701 7.26041 61.8591 7.36441Z" fill="#1A1A1A"/>
<path d="M50.0449 21.1504V26.5344C50.0449 26.6544 50.0679 26.7694 50.1099 26.8744C50.2749 27.2874 50.7509 27.4854 51.1809 27.3714L52.1059 27.1254" stroke="#D26665" stroke-width="0.4968" stroke-miterlimit="10" stroke-linecap="round" stroke-linejoin="round"/>
<path d="M46.5459 21.5854C46.5459 22.2064 46.0419 22.7104 45.4209 22.7104C44.7999 22.7104 44.2959 22.2064 44.2959 21.5854C44.2959 20.9644 44.7999 20.4604 45.4209 20.4604C46.0419 20.4604 46.5459 20.9644 46.5459 21.5854Z" fill="#1A1A1A"/>
<path d="M47.681 18.8785L47.722 16.7405L43.757 16.8115C43.257 16.8205 42.774 17.0015 42.39 17.3225L40.095 19.2465L43.438 18.7485L47.681 18.8785Z" fill="#1A1A1A"/>
<path d="M54.5579 21.5854C54.5579 22.2064 55.0619 22.7104 55.6829 22.7104C56.3039 22.7104 56.8079 22.2064 56.8079 21.5854C56.8079 20.9644 56.3039 20.4604 55.6829 20.4604C55.0619 20.4604 54.5579 20.9644 54.5579 21.5854Z" fill="#1A1A1A"/>
<path d="M53.4231 18.8785L53.3821 16.7405L57.3471 16.8115C57.8481 16.8205 58.3301 17.0015 58.7141 17.3225L61.0091 19.2465L57.6661 18.7485L53.4231 18.8785Z" fill="#1A1A1A"/>
<path d="M49.972 29.3896C49.491 29.6506 49.081 29.7976 48.621 29.9396C48.171 30.0736 47.71 30.1646 47.245 30.2136C46.318 30.3206 45.366 30.2096 44.506 29.9056C44.328 29.8426 44.235 29.6486 44.298 29.4706C44.353 29.3136 44.512 29.2226 44.67 29.2466L44.683 29.2486C45.478 29.3676 46.277 29.3066 47.026 29.0736C47.4 28.9606 47.764 28.8136 48.109 28.6356C48.443 28.4626 48.806 28.2356 49.045 28.0346C49.393 27.7396 49.914 27.7826 50.208 28.1306C50.503 28.4786 50.459 28.9996 50.112 29.2936C50.07 29.3296 50.018 29.3636 49.972 29.3896Z" fill="#1A1A1A"/>
<path d="M52.5559 28.0345C52.7949 28.2345 53.1579 28.4625 53.4919 28.6355C53.8369 28.8135 54.2009 28.9605 54.5749 29.0735C55.3229 29.3075 56.1229 29.3675 56.9179 29.2485L56.9309 29.2465C57.1169 29.2185 57.2909 29.3475 57.3189 29.5335C57.3429 29.6975 57.2459 29.8525 57.0949 29.9055C56.2349 30.2095 55.2829 30.3195 54.3559 30.2135C53.8909 30.1645 53.4309 30.0735 52.9799 29.9395C52.5209 29.7975 52.1099 29.6505 51.6289 29.3895C51.2279 29.1725 51.0799 28.6715 51.2969 28.2705C51.5139 27.8695 52.0149 27.7215 52.4159 27.9385C52.4639 27.9645 52.5149 28.0005 52.5559 28.0345Z" fill="#1A1A1A"/>
<path d="M47.54 30.8374H53.697" stroke="#D26665" stroke-width="0.4968" stroke-miterlimit="10" stroke-linecap="round" stroke-linejoin="round"/>
<path d="M49.1489 32.6904C49.1489 32.6904 50.4559 33.1004 52.0889 32.6904" stroke="#D26665" stroke-width="0.3726" stroke-miterlimit="10" stroke-linecap="round" stroke-linejoin="round"/>
</svg>
